{"title":"Megamind 2010 Scr H264.Feel-Free","uid":6086197,"size":762263369,"categoryP":"video","categoryS":"movies","magnet":"?xt=urn:btih:2c1f628fa62ca2a12a46e804d14510e9e5399273&amp;dn=Megamind+2010+Scr+H264.Feel-Free&amp;tr=udp%3A%2F%2Ftracker.openbittorrent.com%3A80&amp;tr=udp%3A%2F%2Fopen.demonii.com%3A1337&amp;tr=udp%3A%2F%2Ftracker.coppersurfer.tk%3A6969&amp;tr=udp%3A%2F%2Fexodus.desync.com%3A6969","seeders":0,"leechers":0,"uploader":"neon","files":-1,"time":1294339018,"description":"Genre:Animation | Comedy | Family\nLanguage:English\n &lt;a href=&quot; http://www.imdb.com/title/tt1001526/&quot; rel=&quot;nofollow&quot; target=&quot;_NEW&quot;&gt; http://www.imdb.com/title/tt1001526/&lt;/a&gt;\nSource:IMAGINE Thx\nSubtitles:Romana\n\n\nFormat : MPEG-4\nFormat profile : Base Media\nCodec ID : isom\nFile size : 725 MiB\nDuration : 1h 35mn\nOverall bit rate : 1 059 Kbps\nMovie name : Megamind.2010.Scr.H264.Feel-Free\n\n\nVideo\nFormat settings, CABAC : Yes\nFormat settings, ReFrames : 4 frames\nCodec ID : avc1\nCodec ID/Info : Advanced Video Coding\nDuration : 1h 35mn\nBit rate mode : Variable\nBit rate : 877 Kbps\nWidth : 720 pixels\nHeight : 384 pixels\nDisplay aspect ratio : 1.875\nFrame rate mode : Constant\nFrame rate : 29.970 fps\nColor space : YUV\nChroma subsampling : 4:2:0\nBit depth : 8 bits\nScan type : Progressive\nBits/(Pixel*Frame) : 0.106\nStream size : 607 MiB (84%)\n\nAudio\nID : 2\nFormat : AAC\nFormat/Info : Advanced Audio Codec\nFormat version : Version 4\nFormat profile : LC\nCodec ID : 40\nDuration : 1h 35mn\nBit rate mode : Variable\nBit rate : 165 Kbps\nChannel(s) : 2 channels\nChannel positions : Front: L R\nSampling rate : 48.0 KHz\nStream size : 113 MiB (16%)\n\n\n\nPlot:\nThe supervillain Megamind finally conquers his nemesis, the hero Metro Man... but finds his life pointless without a hero to fight.\n &lt;a href=&quot;\nhttp://shareimage.org/images/lfvo7o4macgappc6x4d.png&quot; rel=&quot;nofollow&quot; target=&quot;_NEW&quot;&gt;\nhttp://shareimage.org/images/lfvo7o4macgappc6x4d.png&lt;/a&gt; &lt;a href=&quot;\nhttp://shareimage.org/images/kzfcj84k6cx06hwal12.png&quot; rel=&quot;nofollow&quot; target=&quot;_NEW&quot;&gt;\nhttp://shareimage.org/images/kzfcj84k6cx06hwal12.png&lt;/a&gt; &lt;a href=&quot;\nhttp://shareimage.org/images/9znpe6sgvw1vhz5g3y.png&quot; rel=&quot;nofollow&quot; target=&quot;_NEW&quot;&gt;\nhttp://shareimage.org/images/9znpe6sgvw1vhz5g3y.png&lt;/a&gt; &lt;a href=&quot;\nhttp://shareimage.org/images/87761ebdjg5c78sdgph.png&quot; rel=&quot;nofollow&quot; target=&quot;_NEW&quot;&gt;\nhttp://shareimage.org/images/87761ebdjg5c78sdgph.png&lt;/a&gt; &lt;a href=&quot;\nhttp://shareimage.org/images/qxmj00yn412hw8xty67i.png&quot; rel=&quot;nofollow&quot; target=&quot;_NEW&quot;&gt;\nhttp://shareimage.org/images/qxmj00yn412hw8xty67i.png&lt;/a&gt;","torrent":{"xt":"urn:btih:2c1f628fa62ca2a12a46e804d14510e9e5399273","amp;dn":"Megamind+2010+Scr+H264.Feel-Free","amp;tr":["udp%3A%2F%2Ftracker.openbittorrent.com%3A80","udp%3A%2F%2Fopen.demonii.com%3A1337","udp%3A%2F%2Ftracker.coppersurfer.tk%3A6969","udp%3A%2F%2Fexodus.desync.com%3A6969"],"infoHash":"2c1f628fa62ca2a12a46e804d14510e9e5399273","infoHashBuffer":{"type":"Buffer","data":[44,31,98,143,166,44,162,161,42,70,232,4,209,69,16,233,229,57,146,115]},"announce":[],"urlList":[]}}